<svg width="736" height="121" viewBox="0 0 736 121" fill="none" xmlns="http://www.w3.org/2000/svg">
<path d="M51.71 55.42C69.39 53.38 85.88 46.58 85.88 28.22C85.88 4.42 57.66 -8.10623e-06 35.73 -8.10623e-06H0.2V119H43.04C65.14 119 93.36 111.01 93.36 87.04C93.36 66.3 71.77 57.46 51.71 55.42ZM35.73 1.35999C63.61 1.35999 72.62 13.26 72.62 28.22C72.62 43.35 63.61 55.08 35.73 55.08H13.46V1.35999H35.73ZM43.04 117.81H13.46V56.44H43.04C71.09 56.44 79.93 72.08 79.93 87.04C79.93 102.17 71.09 117.81 43.04 117.81ZM144.138 37.23C130.538 37.23 122.378 44.37 119.658 53.55L120.848 54.06C123.568 45.05 131.558 38.93 142.608 38.93C154.678 38.93 161.648 50.32 161.648 63.24V79.05C151.108 57.29 101.808 58.99 101.808 93.67C101.808 108.63 116.088 119.85 132.238 119.85C149.408 119.85 158.588 107.61 161.648 95.2L173.208 119H175.078V65.45C175.078 44.54 158.248 37.23 144.138 37.23ZM135.978 116.62C124.248 116.62 114.048 106.25 114.048 92.14C114.048 58.82 155.018 62.73 161.648 82.28V86.36C160.968 100.98 151.788 116.62 135.978 116.62ZM263.474 66.98C261.264 46.75 249.534 37.23 235.594 37.23C213.494 37.23 207.714 60.18 205.504 79.39V38.42H192.074V119H205.504V93.84C205.504 79.56 208.904 43.86 227.944 40.29C242.564 37.4 248.854 51.85 250.214 64.6C251.064 73.27 254.634 113.39 255.144 119H268.744C267.894 112.71 265.174 83.64 263.474 66.98ZM318.087 62.9L345.627 38.42H343.757L295.647 81.09V-8.10623e-06H282.387V119H295.647V82.62L309.417 70.38L339.167 119H352.937L318.087 62.9Z" fill="#FFFCF6"/>
<path d="M439.186 -8.10623e-06V47.94H380.026V-8.10623e-06H366.596V119H380.026V49.13H439.186V119H452.616V-8.10623e-06H439.186ZM511.093 37.23C489.673 37.23 466.213 52.7 466.213 78.54C466.213 104.38 489.673 119.85 511.093 119.85C532.513 119.85 555.973 104.38 555.973 78.54C555.973 52.7 532.513 37.23 511.093 37.23ZM511.093 118.49C494.263 118.49 480.153 100.98 480.153 78.54C480.153 56.1 494.263 38.59 511.093 38.59C527.923 38.59 542.033 56.1 542.033 78.54C542.033 100.98 527.923 118.49 511.093 118.49ZM617.103 88.91C617.103 103.02 612.173 116.28 600.783 116.79C587.353 117.47 584.633 107.27 584.633 92.48V38.42H604.523V37.23H584.633V13.94H582.763L571.203 37.23H561.173V38.42H571.203V90.1C571.203 109.99 580.553 119.85 595.513 119.85C613.533 119.85 618.293 105.06 618.293 88.91H617.103ZM709.03 95.37C706.31 100.3 697.13 115.09 680.47 116.79C663.13 118.66 648.85 109.14 642.56 91.29C639.67 83.13 639.33 73.1 641.37 64.09H708.18C705.8 43.52 685.91 36.38 671.63 37.23C652.93 38.08 626.07 50.83 626.92 80.41C627.6 108.29 652.42 120.87 674.52 119.85C694.75 118.83 704.78 105.57 710.22 95.88L709.03 95.37ZM663.81 39.1C680.47 36.04 693.73 47.94 695.94 62.73H641.71C644.94 51.17 652.25 41.31 663.81 39.1ZM722.162 -8.10623e-06V119H735.592V-8.10623e-06H722.162Z" fill="#FCD043"/>
</svg>
